<?xml version="1.0" standalone="no"?>
<!DOCTYPE svg PUBLIC "-//W3C//DTD SVG 20010904//EN"
 "http://www.w3.org/TR/2001/REC-SVG-20010904/DTD/svg10.dtd">
<svg version="1.0" xmlns="http://www.w3.org/2000/svg"
 width="1422.000000pt" height="692.000000pt" viewBox="0 0 1422.000000 692.000000"
 preserveAspectRatio="xMidYMid meet">
<metadata>
Created by potrace 1.16, written by Peter Selinger 2001-2019
</metadata>
<g transform="translate(0.000000,692.000000) scale(0.100000,-0.100000)"
fill="#000000" stroke="none">
<path d="M1443 6486 c-228 -44 -386 -135 -568 -327 -145 -154 -246 -329 -334
-584 -129 -367 -187 -754 -198 -1300 -9 -461 10 -654 83 -874 102 -307 292
-569 507 -699 30 -18 99 -49 153 -68 128 -46 390 -113 476 -121 l68 -6 39 84
c53 116 176 422 195 488 9 32 12 59 7 64 -5 5 -36 0 -73 -11 -158 -49 -416
-56 -511 -14 -107 48 -243 166 -316 275 -119 177 -158 406 -148 875 5 263 18
379 77 695 116 618 288 971 535 1093 72 35 83 38 169 39 105 0 153 -19 204
-81 54 -66 47 -116 -27 -197 -23 -24 -41 -53 -41 -64 0 -35 298 -358 323 -350
36 11 135 232 161 359 68 329 -116 628 -439 714 -83 22 -253 27 -342 10z"/>
<path d="M9040 4294 l0 -955 118 6 c560 27 627 34 747 75 159 55 321 160 404
261 62 77 139 207 170 289 25 64 26 71 26 330 0 302 -9 366 -72 493 -29 56
-60 95 -142 177 -203 203 -342 244 -914 270 -125 5 -252 10 -282 10 l-55 0 0
-956z m640 546 c52 -6 113 -19 137 -30 79 -35 187 -168 235 -289 31 -78 33
-286 4 -375 -42 -126 -135 -234 -254 -293 -66 -33 -82 -37 -177 -41 l-105 -5
0 526 0 526 33 -5 c17 -2 75 -9 127 -14z"/>
<path d="M2624 5233 c-18 -3 -24 -18 -39 -91 -39 -187 -323 -1242 -427 -1582
-28 -91 -51 -171 -52 -179 0 -8 14 -18 34 -24 48 -13 336 -5 350 9 7 7 13 36
16 65 3 54 33 182 73 316 26 86 6 79 267 89 l182 6 35 -149 c39 -163 62 -298
52 -312 -11 -19 72 -26 297 -26 159 0 230 3 239 12 8 8 4 34 -19 105 -94 285
-472 1671 -472 1730 0 11 -11 23 -26 28 -24 10 -465 12 -510 3z m224 -785 c16
-35 92 -308 92 -332 0 -8 -188 -6 -220 3 -33 10 -32 26 19 191 41 131 62 180
80 180 5 0 18 -19 29 -42z"/>
<path d="M3940 4295 l0 -945 595 0 595 0 0 375 c0 206 -2 375 -4 375 -12 0
-372 -126 -417 -146 -75 -34 -83 -52 -64 -152 24 -122 32 -112 -96 -112 l-111
0 6 243 c3 133 9 482 12 775 l6 532 -261 0 -261 0 0 -945z"/>
<path d="M5482 5230 c-18 -4 -35 -10 -37 -12 -3 -2 6 -56 19 -119 13 -63 32
-169 42 -235 l17 -122 284 6 c267 5 283 4 283 -13 0 -37 -429 -885 -591 -1170
-38 -66 -85 -142 -106 -169 l-36 -48 805 3 c444 2 809 7 813 11 4 4 -9 36 -29
72 -44 78 -71 179 -81 296 -3 47 -9 93 -12 104 -5 18 -18 18 -319 11 -173 -4
-314 -4 -314 0 0 14 553 1084 664 1284 25 46 44 86 41 90 -3 3 -31 8 -63 12
-78 10 -1339 9 -1380 -1z"/>
<path d="M7726 5231 c-15 -6 -26 -38 -52 -148 -63 -270 -319 -1214 -419 -1545
-25 -80 -45 -153 -45 -161 0 -11 14 -18 45 -23 54 -8 313 0 336 10 12 5 18 25
21 79 3 41 23 138 48 224 50 180 17 161 289 165 l183 3 24 -95 c33 -136 64
-296 64 -334 0 -23 6 -36 18 -41 25 -11 399 -19 466 -11 40 5 56 12 56 22 0 8
-13 57 -30 107 -87 271 -425 1504 -460 1680 -9 47 -16 60 -36 68 -30 11 -480
11 -508 0z m225 -786 c19 -44 89 -296 89 -324 0 -10 -23 -12 -115 -10 -67 3
-119 9 -125 15 -9 9 -3 40 23 120 19 60 40 129 47 154 13 51 35 90 51 90 5 0
19 -20 30 -45z"/>
<path d="M13100 5215 c-323 -89 -504 -399 -381 -650 47 -95 172 -219 373 -368
264 -197 299 -238 263 -306 -38 -75 -175 -98 -279 -47 -77 38 -156 113 -195
185 -17 33 -36 63 -41 66 -5 3 -16 -5 -25 -19 -17 -26 -208 -477 -203 -480
283 -189 477 -257 691 -243 174 11 319 69 417 167 164 164 197 379 90 590 -39
78 -170 196 -348 313 -89 59 -181 124 -204 145 -137 123 -56 277 128 243 107
-20 213 -101 259 -197 14 -30 30 -54 36 -54 11 0 106 194 153 313 17 42 26 82
24 105 -3 32 -12 43 -78 94 -149 114 -248 145 -490 154 -102 3 -149 0 -190
-11z"/>
<path d="M11485 5209 c-197 -14 -332 -64 -462 -169 -130 -105 -232 -270 -273
-440 -23 -96 -27 -265 -9 -352 18 -84 106 -399 124 -443 71 -169 277 -359 445
-410 76 -23 263 -30 389 -16 281 33 452 145 590 386 95 165 112 259 112 604 0
181 -3 252 -16 307 -38 169 -217 384 -390 469 -117 57 -291 79 -510 64z m219
-375 c62 -21 148 -101 181 -167 45 -92 57 -181 53 -387 -3 -182 -4 -186 -33
-244 -41 -82 -103 -147 -177 -186 -54 -29 -75 -35 -148 -38 -73 -4 -93 -1
-132 18 -50 23 -158 129 -158 154 0 9 23 41 50 71 59 65 59 66 -26 156 -29 30
-65 81 -80 113 -24 53 -26 66 -22 148 5 73 11 100 37 153 50 101 146 184 251
216 44 13 155 10 204 -7z"/>
<path d="M12220 2960 c0 -17 36 -67 92 -127 85 -91 121 -201 134 -403 7 -119
-8 -327 -32 -431 -19 -85 -61 -144 -236 -331 -305 -324 -460 -428 -928 -620
-268 -110 -500 -175 -812 -228 -246 -41 -409 -50 -895 -50 -612 0 -690 7
-1135 99 -109 23 -216 41 -238 41 -40 0 -40 0 -26 -23 9 -13 54 -40 103 -62
48 -21 155 -70 237 -108 273 -126 585 -241 736 -271 257 -52 565 -69 1126 -63
672 7 863 36 1284 192 152 56 558 262 695 352 150 99 402 363 481 505 95 169
123 267 124 421 0 155 -56 413 -116 534 -61 122 -366 452 -495 536 -62 40 -99
54 -99 37z"/>
<path d="M2600 1575 l0 -1105 28 0 c85 0 481 22 562 31 251 27 415 98 569 243
180 172 283 417 313 744 31 342 -47 664 -209 857 -210 249 -487 335 -1085 335
l-178 0 0 -1105z m591 729 c61 -8 135 -24 165 -35 67 -25 152 -101 198 -178
44 -73 92 -213 105 -314 61 -445 -151 -783 -516 -821 l-52 -5 -5 52 c-7 72
-19 1317 -12 1317 3 0 55 -7 117 -16z"/>
<path d="M4310 1554 l0 -1126 23 7 c101 32 137 37 295 42 l172 6 0 1098 0
1099 -245 0 -245 0 0 -1126z"/>
<path d="M6885 2669 c-27 -5 -138 -13 -246 -18 -113 -5 -204 -13 -217 -20 -14
-7 -22 -21 -22 -36 0 -34 -139 -491 -271 -892 -121 -367 -145 -431 -158 -417
-24 26 -295 938 -372 1248 -16 66 -34 123 -41 128 -17 11 -83 10 -277 -3 -173
-11 -211 -19 -211 -44 0 -8 38 -142 85 -298 93 -313 251 -871 344 -1217 105
-394 141 -550 141 -616 l0 -62 59 19 c76 23 254 39 447 39 l151 0 6 92 c6 108
51 273 182 663 89 269 144 407 160 407 34 0 292 -915 302 -1073 l6 -86 171 -7
c194 -7 375 -23 426 -36 20 -6 38 -6 43 -1 5 5 13 42 17 83 4 40 15 102 24
138 126 482 555 1812 635 1969 12 23 17 42 11 46 -5 3 -40 1 -77 -5 -37 -7
-153 -15 -258 -20 -104 -4 -197 -11 -206 -14 -10 -5 -24 -39 -38 -96 -44 -178
-375 -1209 -401 -1250 -9 -13 -11 -13 -20 0 -24 37 -221 692 -301 1000 -45
174 -53 270 -25 332 27 63 26 64 -69 47z"/>
<path d="M11063 2645 c-168 -37 -300 -168 -302 -300 -2 -100 85 -223 192 -273
196 -91 439 -55 567 85 77 84 97 171 63 267 -61 169 -297 269 -520 221z"/>
<path d="M9523 2025 c-168 -37 -300 -168 -302 -300 -2 -100 85 -223 192 -273
196 -91 439 -55 567 85 77 84 97 171 63 267 -61 169 -297 269 -520 221z"/>
</g>
</svg>
